<mxfile host="app.diagrams.net" agent="Mozilla/5.0 (Windows NT 10.0; Win64; x64) AppleWebKit/537.36 (KHTML, like Gecko) Chrome/134.0.0.0 Safari/537.36" version="26.2.9">
  <diagram name="Page-1" id="nrXo8awv7_SD-VZBpAiB">
    <mxGraphModel dx="2012" dy="857" grid="0" gridSize="10" guides="1" tooltips="1" connect="0" arrows="1" fold="1" page="0" pageScale="1" pageWidth="850" pageHeight="1100" background="none" math="0" shadow="0">
      <root>
        <mxCell id="0" />
        <mxCell id="1" parent="0" />
        <mxCell id="Sht0NDxg9RHxLE4QX7N3-3" style="edgeStyle=orthogonalEdgeStyle;rounded=0;orthogonalLoop=1;jettySize=auto;html=1;exitX=0.5;exitY=1;exitDx=0;exitDy=0;" edge="1" parent="1" source="Sht0NDxg9RHxLE4QX7N3-1" target="Sht0NDxg9RHxLE4QX7N3-2">
          <mxGeometry relative="1" as="geometry" />
        </mxCell>
        <mxCell id="Sht0NDxg9RHxLE4QX7N3-1" value="Application Submitted to LP" style="rounded=0;whiteSpace=wrap;html=1;fillColor=#f5f5f5;fontColor=#333333;strokeColor=#666666;" vertex="1" parent="1">
          <mxGeometry x="370" y="40" width="120" height="60" as="geometry" />
        </mxCell>
        <mxCell id="Sht0NDxg9RHxLE4QX7N3-11" value="" style="edgeStyle=orthogonalEdgeStyle;rounded=0;orthogonalLoop=1;jettySize=auto;html=1;dashed=1;dashPattern=1 4;" edge="1" parent="1" source="Sht0NDxg9RHxLE4QX7N3-2" target="Sht0NDxg9RHxLE4QX7N3-10">
          <mxGeometry relative="1" as="geometry" />
        </mxCell>
        <mxCell id="Sht0NDxg9RHxLE4QX7N3-17" value="" style="edgeStyle=orthogonalEdgeStyle;rounded=0;orthogonalLoop=1;jettySize=auto;html=1;dashed=1;dashPattern=1 4;" edge="1" parent="1" source="Sht0NDxg9RHxLE4QX7N3-2" target="Sht0NDxg9RHxLE4QX7N3-15">
          <mxGeometry relative="1" as="geometry" />
        </mxCell>
        <mxCell id="Sht0NDxg9RHxLE4QX7N3-2" value="Credit Underwriting" style="rounded=0;whiteSpace=wrap;html=1;fillColor=#f5f5f5;fontColor=#333333;strokeColor=#666666;" vertex="1" parent="1">
          <mxGeometry x="370" y="150" width="120" height="60" as="geometry" />
        </mxCell>
        <mxCell id="Sht0NDxg9RHxLE4QX7N3-6" value="" style="edgeStyle=orthogonalEdgeStyle;rounded=0;orthogonalLoop=1;jettySize=auto;html=1;" edge="1" parent="1" source="Sht0NDxg9RHxLE4QX7N3-4" target="Sht0NDxg9RHxLE4QX7N3-2">
          <mxGeometry relative="1" as="geometry" />
        </mxCell>
        <mxCell id="Sht0NDxg9RHxLE4QX7N3-4" value="Credit Data" style="shape=cylinder3;whiteSpace=wrap;html=1;boundedLbl=1;backgroundOutline=1;size=15;fillColor=#f5f5f5;fontColor=#333333;strokeColor=#666666;rounded=0;" vertex="1" parent="1">
          <mxGeometry x="210" y="140" width="60" height="80" as="geometry" />
        </mxCell>
        <mxCell id="Sht0NDxg9RHxLE4QX7N3-7" value="" style="endArrow=classic;html=1;rounded=0;exitX=0.5;exitY=1;exitDx=0;exitDy=0;exitPerimeter=0;entryX=0;entryY=0.5;entryDx=0;entryDy=0;" edge="1" parent="1" source="Sht0NDxg9RHxLE4QX7N3-4" target="Sht0NDxg9RHxLE4QX7N3-10">
          <mxGeometry relative="1" as="geometry">
            <mxPoint x="340" y="420" as="sourcePoint" />
            <mxPoint x="360" y="280" as="targetPoint" />
          </mxGeometry>
        </mxCell>
        <mxCell id="Sht0NDxg9RHxLE4QX7N3-8" value="LP Score" style="edgeLabel;resizable=0;html=1;;align=center;verticalAlign=middle;rounded=0;" connectable="0" vertex="1" parent="Sht0NDxg9RHxLE4QX7N3-7">
          <mxGeometry relative="1" as="geometry" />
        </mxCell>
        <mxCell id="Sht0NDxg9RHxLE4QX7N3-13" value="" style="edgeStyle=orthogonalEdgeStyle;rounded=0;orthogonalLoop=1;jettySize=auto;html=1;dashed=1;dashPattern=1 4;" edge="1" parent="1" source="Sht0NDxg9RHxLE4QX7N3-10" target="Sht0NDxg9RHxLE4QX7N3-12">
          <mxGeometry relative="1" as="geometry" />
        </mxCell>
        <mxCell id="Sht0NDxg9RHxLE4QX7N3-22" value="" style="edgeStyle=orthogonalEdgeStyle;rounded=0;orthogonalLoop=1;jettySize=auto;html=1;" edge="1" parent="1" source="Sht0NDxg9RHxLE4QX7N3-10" target="Sht0NDxg9RHxLE4QX7N3-21">
          <mxGeometry relative="1" as="geometry" />
        </mxCell>
        <mxCell id="Sht0NDxg9RHxLE4QX7N3-10" value="Insurance Underwriting" style="rounded=0;whiteSpace=wrap;html=1;fillColor=#f5f5f5;fontColor=#333333;strokeColor=#666666;" vertex="1" parent="1">
          <mxGeometry x="370" y="260" width="120" height="60" as="geometry" />
        </mxCell>
        <mxCell id="Sht0NDxg9RHxLE4QX7N3-12" value="Contract Rate" style="shape=parallelogram;perimeter=parallelogramPerimeter;whiteSpace=wrap;html=1;fixedSize=1;fillColor=#d5e8d4;strokeColor=#82b366;rounded=0;" vertex="1" parent="1">
          <mxGeometry x="370" y="370" width="120" height="60" as="geometry" />
        </mxCell>
        <mxCell id="Sht0NDxg9RHxLE4QX7N3-15" value="FAILED" style="whiteSpace=wrap;html=1;shape=mxgraph.basic.octagon2;align=center;verticalAlign=middle;dx=15;fillColor=#f8cecc;strokeColor=#b85450;rounded=0;" vertex="1" parent="1">
          <mxGeometry x="590" y="130" width="100" height="100" as="geometry" />
        </mxCell>
        <mxCell id="Sht0NDxg9RHxLE4QX7N3-18" value="Eligible" style="text;html=1;align=center;verticalAlign=middle;whiteSpace=wrap;rounded=0;" vertex="1" parent="1">
          <mxGeometry x="370" y="210" width="60" height="50" as="geometry" />
        </mxCell>
        <mxCell id="Sht0NDxg9RHxLE4QX7N3-19" value="Fail" style="text;html=1;align=center;verticalAlign=middle;whiteSpace=wrap;rounded=0;" vertex="1" parent="1">
          <mxGeometry x="490" y="180" width="100" height="30" as="geometry" />
        </mxCell>
        <mxCell id="Sht0NDxg9RHxLE4QX7N3-23" value="" style="edgeStyle=orthogonalEdgeStyle;rounded=0;orthogonalLoop=1;jettySize=auto;html=1;entryX=0.5;entryY=0;entryDx=0;entryDy=0;exitX=0.5;exitY=0;exitDx=0;exitDy=0;" edge="1" parent="1" source="Sht0NDxg9RHxLE4QX7N3-21" target="Sht0NDxg9RHxLE4QX7N3-10">
          <mxGeometry relative="1" as="geometry">
            <Array as="points">
              <mxPoint x="630" y="250" />
              <mxPoint x="430" y="250" />
            </Array>
          </mxGeometry>
        </mxCell>
        <mxCell id="Sht0NDxg9RHxLE4QX7N3-21" value="Counter" style="rounded=0;whiteSpace=wrap;html=1;fillColor=#fff2cc;strokeColor=#d6b656;" vertex="1" parent="1">
          <mxGeometry x="580" y="260" width="120" height="60" as="geometry" />
        </mxCell>
        <mxCell id="Sht0NDxg9RHxLE4QX7N3-24" value="Denied" style="text;html=1;align=center;verticalAlign=middle;whiteSpace=wrap;rounded=0;" vertex="1" parent="1">
          <mxGeometry x="490" y="290" width="90" height="30" as="geometry" />
        </mxCell>
        <mxCell id="Sht0NDxg9RHxLE4QX7N3-25" value="Approved" style="text;html=1;align=center;verticalAlign=middle;whiteSpace=wrap;rounded=0;" vertex="1" parent="1">
          <mxGeometry x="430" y="330" width="60" height="30" as="geometry" />
        </mxCell>
      </root>
    </mxGraphModel>
  </diagram>
</mxfile>
